<?xml version="1.0" encoding="utf-8"?>
<!-- Generator: Adobe Illustrator 20.0.0, SVG Export Plug-In . SVG Version: 6.00 Build 0)  -->
<svg version="1.1" id="Layer_1" xmlns="http://www.w3.org/2000/svg" xmlns:xlink="http://www.w3.org/1999/xlink" x="0px" y="0px"
	 viewBox="0 0 850.4 850.4" style="enable-background:new 0 0 850.4 850.4;" xml:space="preserve">
<style type="text/css">
	.st0{clip-path:url(#SVGID_2_);fill:#9C43DC;}
	.st1{clip-path:url(#SVGID_2_);fill:#BF7EEE;}
	.st2{clip-path:url(#SVGID_2_);fill:#E8CFFF;}
	.st3{clip-path:url(#SVGID_2_);fill:#F9F3FF;}
</style>
<g>
	<defs>
		<rect id="SVGID_1_" x="-0.6" y="0.3" width="850.4" height="850.4"/>
	</defs>
	<clipPath id="SVGID_2_">
		<use xlink:href="#SVGID_1_"  style="overflow:visible;"/>
	</clipPath>
	<rect x="1.4" y="-3.7" class="st0" width="850" height="854"/>
	<path class="st1" d="M857.4-5.7c0,0-6,400-7,407.5c-9.4,72.8-59,128.2-125,150.5c-85,28.6-272.3,17.3-346.1,81.4
		c-46,39.9-83,87.9-135.9,118.2c-37.5,21.5-76.2,24.8-134.6,41c-49.4,13.7-85,40.4-107,60.2l0-852.2C113.4,6.3,739.4-11.7,857.4-5.7
		z"/>
	<path class="st2" d="M709.4,0.3c20.4,28.9,20,254-157.1,385.3c-72,53.4-203.1,65-255.1,147.8c-32.4,51.6-53.8,108.2-95.5,152.7
		C172.1,717.6,136.1,732,85,764.6C41.7,792.1,15.4,828,0.2,853.4L1.8,0.9C99.4,2.3,589.4,0.3,709.4,0.3z"/>
	<path class="st3" d="M373.4,0.3c28.9,20.4,60,106-8.9,227.1C320.1,305.3,195,356.9,174,452.3c-13.1,59.5-14.2,120-38.6,175.9
		c-17.3,39.6-46.4,65.3-83.6,113.2c-31.4,40.5-44.2,83.2-50,112.2V0.9C91.9,0.9,283.3,0.3,373.4,0.3z"/>
</g>
</svg>
