<?xml version="1.0" encoding="utf-8"?>
<!-- Generator: Adobe Illustrator 20.0.0, SVG Export Plug-In . SVG Version: 6.00 Build 0)  -->
<svg version="1.1" id="Layer_2" xmlns="http://www.w3.org/2000/svg" xmlns:xlink="http://www.w3.org/1999/xlink" x="0px" y="0px"
	 viewBox="0 0 2429.8 10000" style="enable-background:new 0 0 2429.8 10000;" xml:space="preserve">
<style type="text/css">
	.st0{clip-path:url(#SVGID_2_);}
	.st1{fill:#9C43DC;}
	.st2{clip-path:url(#SVGID_2_);enable-background:new    ;}
	.st3{clip-path:url(#SVGID_4_);}
	.st4{clip-path:url(#SVGID_2_);fill:#BF7EEE;}
	.st5{clip-path:url(#SVGID_6_);fill:#BF7EEE;}
	.st6{clip-path:url(#SVGID_2_);fill:#E8CFFF;}
	.st7{clip-path:url(#SVGID_8_);fill:#E8CFFF;}
	.st8{clip-path:url(#SVGID_10_);fill:#F9F3FF;}
	.st9{clip-path:url(#SVGID_2_);fill:#F9F3FF;}
	.st10{clip-path:url(#SVGID_2_);fill:none;}
</style>
<g id="Layer_1">
</g>
<g>
	<defs>
		<rect id="SVGID_1_" x="0.1" y="-11.2" width="2435.3" height="10014.2"/>
	</defs>
	<clipPath id="SVGID_2_">
		<use xlink:href="#SVGID_1_"  style="overflow:visible;"/>
	</clipPath>
	<g class="st0">
		<rect x="0.1" y="-11.2" class="st1" width="2435.3" height="10014.2"/>
	</g>
	<g class="st2">
		
			<image style="overflow:visible;" width="5326" height="10340" xlink:href="53E9DFCA.png"  transform="matrix(1 0 0 1 -2245 1251.3)">
		</image>
	</g>
	<g class="st0">
		<defs>
			<rect id="SVGID_3_" x="0.4" y="-5" width="2430.4" height="1322.4"/>
		</defs>
		<clipPath id="SVGID_4_">
			<use xlink:href="#SVGID_3_"  style="overflow:visible;"/>
		</clipPath>
		<g class="st3">
			
				<image style="overflow:visible;enable-background:new    ;" width="2573" height="1706" xlink:href="53E9DFC9.png"  transform="matrix(1.0008 0 0 0.8212 -69.6848 -31.3167)">
			</image>
		</g>
	</g>
	<path class="st4" d="M-21,1309.2c195.8-11.3,666.9,83.4,1009.2,207.6c482.6,175,751.6,272.5,924.6,545.9
		c260,410.9,145,969.8-72,1313.7c-156.5,248-363.4,379.8-492.3,461.9C1002,4059,662.7,4115.4,471.9,4132.2
		c123.3-27.7,402.7-72.8,726.5,36c116.4,39.1,385.8,129.6,570.4,377.9c185.3,249.4,98,406.1,270.2,713.9
		c142.5,254.8,320,357.6,444.3,467.9c489,434.2,641.8,1418.2,372.2,2195.6c-81.7,235.6-505.8,786.3-1458.9,953.8
		c-594.9,104.6-1044.5,269.3-1206.7,168c280.9,289.5,529.1,371.2,708.4,389.9c276.9,28.9,406.3-90.5,1062.7-216
		c448.3-85.7,542.3-59.5,606.4-30c329.7,151.8,396.6,634.7,414.3,761.8c54.2,391.2-15.5,1053.9-456.3,1397.7
		c-532.6,415.4-1389.7,171-3103.9-317.9c-418.1-119.2-627.2-178.9-702.4-222C-3462.6,9560.3-1534,1396.8-21,1309.2z"/>
	<g class="st2">
		
			<image style="overflow:visible;" width="3417" height="9515" xlink:href="53E9DFD8.png"  transform="matrix(1 0 0 1 -735 1270.3)">
		</image>
	</g>
	<g class="st0">
		<defs>
			<rect id="SVGID_5_" x="0.4" y="-5" width="2430.4" height="1322.4"/>
		</defs>
		<clipPath id="SVGID_6_">
			<use xlink:href="#SVGID_5_"  style="overflow:visible;"/>
		</clipPath>
		<path class="st5" d="M2452.5-14.4c0,0-17.2,622-20,633.8c-27,113.2-169,199.4-358.2,233.9c-243.5,44.4-780.1,26.9-991.6,126.5
			c-131.8,62.1-237.8,136.6-389.3,183.8c-107.4,33.4-218.3,38.5-385.5,63.8c-141.4,21.4-243.6,62.9-306.7,93.7L1.3-4.1
			C321,4.3,2114.4-23.7,2452.5-14.4z"/>
	</g>
	<g class="st0">
		
			<image style="overflow:visible;enable-background:new    ;" width="2188" height="1734" xlink:href="53E9DFDD.png"  transform="matrix(1.0008 0 0 0.8212 -53.6717 -59.2362)">
		</image>
	</g>
	<path class="st6" d="M9.6,1306.8c281.9,174.6,479.9,358.6,606.4,491.9c204.8,215.9,364.7,384.5,438.3,659.9
		c20.1,75.3,72.5,303.4,6,569.9c-143.2,574.1-654.5,591-702.4,989.8c-61.3,510.1,713.2,1001.7,798.5,1055.8
		c273.1,173.3,290,92.5,510.3,240c586.8,392.8,803.1,1191.6,762.5,1793.6c-13.6,200.8-54,354.5-78,443.9
		c-22.5,83.8-177.8,641.4-552.3,1037.8c-643.6,681.2-1669.6,606-1807.1,593.9c182,33.4,445.8,103.7,720.4,269.9
		c234.7,142.1,304.5,249.5,432.3,323.9c223.6,130.2,629.2,161.9,1428.9-305.9c14,417.9,28,835.8,42,1253.8
		c-1114.7,8-2229.4,16-3344.1,24c82.1-3133.4,164.1-6266.7,246.2-9400.1C-318.6,1334.8-154.5,1320.8,9.6,1306.8z"/>
	<g class="st0">
		<defs>
			<rect id="SVGID_7_" x="0.4" y="-5" width="2430.4" height="1322.4"/>
		</defs>
		<clipPath id="SVGID_8_">
			<use xlink:href="#SVGID_7_"  style="overflow:visible;"/>
		</clipPath>
		<path class="st7" d="M2028.6-5c58.3,45,57.3,395-450.1,599.2c-206.4,83-582.1,101-730.8,229.8c-92.7,80.3-154,168.3-273.6,237.4
			c-84.8,49-188.1,71.4-334.5,122c-123.8,42.9-199.3,98.7-243,138.1L1.3-4.1C280.8-2,1684.7-5,2028.6-5z"/>
	</g>
	<g class="st0">
		
			<image style="overflow:visible;enable-background:new    ;" width="1282" height="1730" xlink:href="53E9DFDE.png"  transform="matrix(1.0008 0 0 0.8212 -35.6569 -34.6013)">
		</image>
	</g>
	<g class="st0">
		<defs>
			<rect id="SVGID_9_" x="0.4" y="-5" width="2430.4" height="1322.4"/>
		</defs>
		<clipPath id="SVGID_10_">
			<use xlink:href="#SVGID_9_"  style="overflow:visible;"/>
		</clipPath>
		<path class="st8" d="M1065.9-5c82.9,31.7,171.9,164.8-25.5,353.2C913.3,469.3,554.9,549.5,494.6,698
			c-37.5,92.5-40.8,186.7-110.6,273.5c-49.4,61.7-132.9,101.6-239.4,176c-90.1,62.9-126.5,129.3-143.2,174.4V-4.1
			C259.4-4.1,807.8-5,1065.9-5z"/>
	</g>
	<g class="st2">
		
			<image style="overflow:visible;" width="3339" height="9419" xlink:href="53E9DFDF.png"  transform="matrix(1 0 0 1 -774 1275.3)">
		</image>
	</g>
	<path class="st9" d="M6.3,1307c32.5,76.2,88.5,190.9,165.4,323.7c208.7,360.6,372.7,468.8,510.3,659.9
		c266.6,370.4,354.4,942.2,186.1,1361.7C822,3767.5,667.3,3965,357.8,4360.2C211.7,4546.8,87.6,4697.6,3.6,4798.1
		C59,5002,170.4,5276.2,417.9,5470c228.7,179.1,356.2,119.1,756.5,299.9c166.5,75.2,558.1,257.2,876.5,641.9
		c192.7,232.8,308.2,479.1,378.2,695.9c-165.2,467.1-401.2,722.5-588.4,869.8c-237.5,186.9-606.6,362.5-1344.8,713.9
		c-77.1,36.7-272.1,129-402.2,335.9c-54.4,86.4-81.6,167.7-96.1,222c112.6,155.5,268,326.4,480.3,473.9
		c800.4,555.9,1756.4,324.9,1963.2,269.9c18,210,36,419.9,54,629.9c-1088.7,10-2177.4,20-3266,30
		c114.1-3099.4,228.1-6198.8,342.2-9298.1C-282.6,1338.8-139.8,1323,6.3,1307z"/>
	<rect x="0.4" y="-5" class="st10" width="2430.4" height="1322.4"/>
</g>
</svg>
