<?xml version="1.0" encoding="UTF-8" standalone="no"?>
<!-- Created with Inkscape (http://www.inkscape.org/) -->

<svg
   version="1.1"
   id="svg2"
   width="4000"
   height="4000"
   viewBox="0 0 4000 4000"
   sodipodi:docname="vecteezy_continuous-line-drawing-of-woman-face-one-line-woman-portrait_6050473.eps"
   xmlns:inkscape="http://www.inkscape.org/namespaces/inkscape"
   xmlns:sodipodi="http://sodipodi.sourceforge.net/DTD/sodipodi-0.dtd"
   xmlns="http://www.w3.org/2000/svg"
   xmlns:svg="http://www.w3.org/2000/svg">
  <defs
     id="defs6" />
  <sodipodi:namedview
     id="namedview4"
     pagecolor="#ffffff"
     bordercolor="#000000"
     borderopacity="0.25"
     inkscape:showpageshadow="2"
     inkscape:pageopacity="0.0"
     inkscape:pagecheckerboard="0"
     inkscape:deskcolor="#d1d1d1" />
  <g
     id="g8"
     inkscape:groupmode="layer"
     inkscape:label="ink_ext_XXXXXX"
     transform="matrix(1.3333333,0,0,-1.3333333,0,4000)">
    <g
       id="g10"
       transform="scale(0.1)">
      <path
         d="M 0,30000 H 30000 V 0 H 0 v 30000"
         style="fill:#ffffff;fill-opacity:1;fill-rule:nonzero;stroke:none"
         id="path12" />
      <path
         d="m 16561.6,21797.6 c -1007,-179.8 -1277.7,164.8 -2202.1,289.3 213.1,166.9 516.4,517.5 687.6,618.2 165.8,95.6 356.3,149.2 546.8,185.2 -329.6,-444.1 292.3,-1283.7 1053.6,-866.7 236.1,131.5 453.9,407.3 385.5,686.4 242,-126.9 453.9,-274.3 805.4,-378.9 l 139.7,-23 c -386.6,-96.2 -963.5,-425 -1416.5,-510.5 z m -877.6,892.1 v 0 c 28.1,98.9 93.3,164.8 183.2,207.6 -31.7,-213.5 191,-467.3 507.3,-424.2 194.7,26.5 383.7,170.7 337.5,377.1 52.3,-17.8 73.5,-25.6 117.1,-78.6 235.4,-286.9 -287.2,-815.2 -749.2,-673 -247.3,76.1 -456.5,342.1 -395.9,591.1 z m 410,227.3 c 53.4,20.6 110.8,27 167.9,26.3 v 0 c 538,-62 187.5,-400.2 -87,-269.3 -103.2,49.2 -188.5,214.6 -80.9,243 z m -3043.5,1433.7 c -58.7,285.6 67.5,527.2 322.3,665.8 570.4,310.3 2649.9,282.6 3397,239.8 194.5,-11.7 385,-26.8 577,-61.4 290.6,-56.9 437.8,-452.2 514.2,-693.6 -731.2,98.1 -1373.8,119.1 -2116.4,24.2 v 0 c -758.7,-117.4 -1209,-274.5 -1769.4,-817.6 -106.8,-120.6 -207.1,-244.5 -301.6,-371.4 -227.2,317.1 -535.6,587.9 -623.1,1014.2 z m -1167.2,-5436 c 200.3,281.1 457.6,406 795.7,435.6 736.4,14.7 1315.8,-914.6 857.5,-1396 -215.6,-226.4 -453.8,-285.4 -755.1,-198 68.8,37 92.9,126.1 -0.7,205.6 -172,141.4 -392.4,268 -604.9,336 -185.8,49.8 -334.3,51.1 -514.7,1.7 19.9,235.3 81.1,416.9 222.2,615.1 z m 377.6,-949.6 c -213.1,82.7 -385.2,122.9 -612,117.9 0.1,4.7 0.2,9.5 0.4,14.2 12.7,4.9 25.6,9.7 39,14.3 281.5,84.4 501.2,7 749.2,-139.8 z m -121.6,-1868.2 c 439.3,-30.9 1595.9,-683.3 1951.5,-984.6 -69.5,-2.6 -139,-5.8 -208.3,-9.4 -256.6,102.8 -498.6,215.4 -754.7,323.4 -528.8,214.4 -610.3,205.7 -1156.2,53.2 -372.5,-86.7 -410.4,35.1 -719.2,12.9 -586.8,-49.2 -314.3,-487.1 -836.2,-637.5 69.6,256.3 179.5,998.6 313.5,1107.1 76.5,62 121.6,68.4 236.4,29.6 105.3,-35.6 228.9,-105.4 334.8,-119.2 l 156.1,2.4 v 0 c 233.9,27.9 462.8,237.6 682.3,222.1 z m -1281.8,-1171.4 c 150.8,199 106.9,353.5 413,379 280.6,16.6 332.3,-91.9 682.1,-24.9 7.8,1.8 69.7,18 70.4,18 v 0 c 503.8,140.9 546.4,151.6 1032.9,-45.6 137.3,-57.8 270.4,-116.8 403.8,-175 -603.2,-42.2 -1202.6,-102.4 -1808.5,-127.6 -249.6,-8.5 -549.6,-1.5 -793.7,-23.9 z m 3442.6,-164.7 c -33.8,-222.6 -318.4,-468.5 -506.9,-591.9 -54.3,-34.7 -206.7,-111.3 -355.7,-184.1 -203,-90.6 -574.2,-186.2 -806.7,-225.2 -569.2,-95.6 -1464.1,-141.5 -1954.4,239.6 -132.5,102.9 -223,237 -213.1,409.7 0.9,13.8 6.5,58.2 7.1,55.7 58.7,231.2 194.7,275.7 426.5,290.9 253.4,14.6 505.5,9.6 759,14.2 v 0 c 734.6,23.6 1462,103.9 2196.6,142.4 32.9,-12.9 66.1,-25.8 99.6,-38.4 117.5,-43 230.8,-81.4 348,-112.9 z m -2829.6,1721.6 c -4.4,-49.1 -40.5,-478.9 -123.3,-460.5 -20.4,4.5 -93.3,62.5 -93.4,136 v 0 c 4.9,117.7 139,251.1 216.7,324.5 z m 3334,-1581 c -109,-37.2 -296.9,1.4 -408.7,29.2 84.6,0 335.5,2.3 408.7,-29.2 z m -4582.2,3151.7 c 155.6,-116.3 388.1,-236.1 579.2,-358.2 88.8,-56.6 103.2,-91 101.6,-195.5 -2.9,-178.1 -17,-279 -45.5,-453.2 17.2,617.1 -246.7,552.7 -635.3,1006.9 z m -1995.64,4304 c -29.62,107.3 -265.32,884.9 -250.19,934.2 239.66,780.5 1474.67,629.9 2038.43,281.3 249.4,-154.2 468,-380.8 626.4,-623.8 0.3,-0.5 2.7,-4 2.8,-4.2 v 0 c 92.7,-148.2 254.8,-459 284.9,-616.6 -663.1,965.2 -2381.07,1087.7 -2702.34,29.1 z m 2181.84,-835.7 c 154.3,85.4 282.7,225 285.5,409 v 0 c 67,-78.2 128.7,-160.4 188,-249.6 z m -836.33,267.5 c -119.5,161.1 -194.88,556.8 140.04,652.8 -47.53,-88.3 -52.42,-190 -29.72,-286.3 122.16,-446.9 715.01,-406.5 774.71,-61.6 264.5,-414.5 -601.87,-686.7 -885.03,-304.9 z m -1116.37,107.8 c 307.2,215.6 554.65,478 925.97,561.1 -110.84,-142.8 -123.16,-322.4 -90.94,-495.2 v 0 c 55.87,-266.8 219.22,-456.5 483.35,-524.2 -862.15,-3.7 -906.89,410.7 -1318.38,458.3 z m 48.13,-123.1 c 59.42,-11.8 109.22,-39.4 161.72,-70.9 28.72,-17.1 156.89,-106.4 188.08,-121.9 -130.39,48.5 -246.83,93.1 -349.8,192.8 z m 1640.27,268.2 c -287.59,-45.7 -336.39,337.5 -164.59,351.3 60.29,4.9 116.89,-7.8 166.39,-34.3 98.1,-87.1 189.7,-286.5 -1.8,-317 z m -1780.06,-15.2 c -48.72,263.1 122.72,554.3 329.72,699.3 387.74,271.6 1017.01,218.2 1424.84,28.9 v 0 c 308.7,-147.9 591.6,-376.9 743.9,-685.7 -147.2,170.7 -339.1,353.2 -543.8,454.6 -43.2,20.7 -83.5,37.7 -123.5,50.8 -24.3,14.5 -50.4,27.9 -78.5,40.6 -133.7,52.8 -246.29,61.4 -378.2,38.3 -213.97,16.1 -394.47,-13 -606.46,-95.9 -276,-117.9 -524.54,-356 -768,-530.9 z M 8123.46,24487 c 270.83,244.7 1029.41,542 1374.89,408.6 147.18,-61.4 275.68,-214.9 373.18,-336.5 v 0 c 274.77,-355.1 533.87,-837.2 727.17,-1257.2 -354.9,442.6 -837,666 -1398.73,729.9 -445.66,50.7 -1051.04,-49.7 -1263.72,-504.9 -25.95,270.2 -16.69,754.3 187.21,960.1 z M 15627.3,10844.6 v 0 c 787.9,195.4 1534,431.5 2314.3,720.1 992,409.5 1721.8,977.6 2411.7,1741.5 -170.8,-675.3 -619.3,-2092.3 -1349.4,-2393.7 -768.2,-317.1 -2442.4,-134 -3376.6,-67.9 v 0 z M 7524.18,22204.4 c 20.19,-39.4 43.65,-78 72.39,-117.8 108.63,-145.5 237.06,-208.2 407.74,-247.8 -321.65,-96.6 -481.81,28.1 -480.13,365.6 z M 23809.2,5723 c -299.8,97.7 -567.8,196.7 -824.4,388.7 -714.4,534.6 -639,1405.7 -414.9,2184.8 432.2,1508.2 419.5,3338.5 -355.6,4757.9 -1126.2,2041.8 -3487.1,2342.8 -3852.5,3805.6 -466.4,1866.6 401.1,2988.6 351.3,4257.7 -11.3,260.7 -20.7,993.7 -237.8,1165.6 92.7,3.3 547.8,42 659.9,66.6 118.9,26 101,131.8 61.7,165 -89.1,75.5 -502.5,9.7 -1112.2,403 -545.6,361.8 -949.3,651.3 -1597.9,815.4 -928.4,218.6 -1700.9,-175.8 -2313,-864 -48.5,-55.7 -92.1,-114.9 -137.4,-172.3 -89.1,185 -164.7,334.2 -257.2,482 101.8,138.7 209.9,273.3 325.7,403.1 529.5,509.9 951,650.3 1665.7,759.5 753.5,94.8 1403.8,67.1 2153.2,-39.5 6.6,-1 35.2,-7.7 38.7,-7.5 109.6,-5.5 141.5,64.9 111.4,160.5 -111,352.2 -273.6,843.7 -691.8,925.7 -189.9,34.4 -375.9,50.1 -568.1,62.3 -823.8,50 -2876.9,79.5 -3531.4,-261 -323.8,-175.5 -493.2,-497.2 -417,-867.9 102.8,-500 442.7,-775.9 691.4,-1139.6 -621.5,-893.2 -992.4,-1919.4 -1418.5,-2931 -324.3,-764.3 -587.1,-1201.5 -633.9,-2004.3 -125.1,-60.4 -223.5,-139.3 -322.3,-252.7 -166.1,128.7 -391.6,414.7 -528.4,575.6 -121.7,143.2 -369.7,476.9 -599,424.5 28.7,75.4 62.9,146.8 101.3,222 208.4,397.8 415.8,767.3 596.4,1181 110.9,255.7 239.7,537.9 314.7,806.5 36.5,133.6 60.2,249.6 69.7,382.5 l 28.7,66.1 c 68.8,346.5 -2.2,703.8 -88.8,1041 -142.8,527.2 -902.9,2215.1 -1500.04,2431.9 -455.58,165.4 -1267.45,-150.6 -1615.42,-454.1 -182.57,-169.4 -256.43,-500.4 -272.54,-741.2 -48.96,-732 246.23,-1279 388.08,-1973.5 -58.74,12.7 -115.73,28.7 -169.15,50.3 -306.75,131.2 -328.01,499.9 -355.46,536.2 -40.46,53.5 -111.72,33.7 -128.06,-28.7 -152.71,-582.9 89.03,-1010.1 696.02,-791.9 136.41,-825 62.37,-1441 8.2,-2322.3 -9.62,-185.1 -10.72,-358.1 -1.05,-543.2 67.26,-899.1 386.15,-1862.8 622.36,-2735.9 350.89,-1256.4 712.02,-2140.1 1365.46,-3270.9 200.9,-354.4 329.5,-735.6 515.5,-1100.4 243,-463.6 590.8,-853 1079.2,-1060.8 697.8,-296.9 1634.2,-235.8 2378.1,-137.2 -2.3,-189.9 77.6,-538.4 123,-720.2 245.2,-967.8 596.7,-1926.1 857.7,-2897.8 101,-376 196.7,-753.1 281.6,-1133.1 83.3,-373.3 151.4,-778.2 235.2,-1134.3 90,-381.9 53.1,178.2 46.5,257.5 -112.6,1350.8 -570.1,2723.6 -967.1,4007.3 -89.4,288.9 -397.7,1334.9 -374,1649.4 192.6,29.2 385.7,63.4 583.5,101.9 141.3,11.9 1708.1,-118.9 2042.8,-137.6 712,-37.5 1495.1,-78.6 2175.6,166.1 -1.5,-0.6 0.4,0.2 0.7,0.3 268.5,123.2 436.2,285.7 617.5,514.9 488,632.4 794.2,1647.3 962.4,2410 15.4,69.7 50.6,155.1 -29.1,211.1 -109.3,76.8 -188.4,-54.7 -204.8,-69.8 -744.5,-885.1 -1506,-1532.3 -2584.5,-1976.1 -953.9,-351.8 -1857.6,-625.1 -2852,-842.2 -119.2,-24.5 -236.5,-47.6 -352.7,-69 -118.5,-11.4 -273.4,10.1 -420,-64.8 -79.1,-40.4 -880.4,-100.5 -1040.4,-105.3 -688.3,-20.4 -1389.1,42.6 -1906.3,543.5 -501.9,486.1 -622.3,1125.4 -957.5,1711.1 -641.69,1110.5 -995.22,1976.3 -1339.59,3210.2 -232.17,858.2 -556.07,1834.3 -615.37,2717.7 -7.31,164.5 -5.74,319.3 2.84,483.7 54.22,883.3 124.77,1495.9 -1.48,2308.3 241.77,-243.6 808.29,-361.5 1131.33,-382.9 178.04,-11.8 461.45,-7.2 619.37,14.3 16.8,2.3 179.4,27.7 180.7,30.8 218.6,47.1 434,116.5 641.4,201.8 -59.1,-589.8 -669.5,-1714.1 -944.3,-2263.4 -140.88,-281.5 -176.88,-423 -173.95,-719 22.04,-543.6 739.25,-945 844.15,-1078.3 92.9,-118 109.6,-256.3 128.1,-409.2 0.2,0 4.1,-52.2 4.4,-57.2 18.3,-269.8 53.2,-158 43,-145.7 46.3,-8.3 219,672.2 128,803.6 -173.1,249.9 -882.8,459.2 -975.32,908.5 -16.8,81.7 -13.44,111.3 26.02,182.6 34.5,62.5 76.2,79 139.9,42.9 235.6,-133.6 539.5,-642 846.1,-920.6 158.3,-143.8 276.8,-164.2 488.6,-174.6 l -14.6,-1018.8 c -20.1,-66.8 -427,-333.6 -358.4,-605.9 -172.5,75.6 -356.7,138.7 -513.8,-20.7 -224.9,-228.3 -269.7,-917.8 -395.8,-1269.4 -58.5,-13.5 -117.1,-27.2 -174.1,-43.9 -262.83,-77.4 -218.93,-379.1 1.2,-374 152.7,3.6 250.5,132.4 303.5,259.8 4.7,1.1 9.3,2.1 13.9,3.2 -24.4,-48.1 -39.4,-95 -52.8,-152.1 -84.3,-525.5 459.2,-802.2 887.1,-886 742.5,-145.4 1879.4,17.7 2541.8,451.9 145.2,95.1 292.9,188.3 415.8,313.2 89.9,91.3 197.7,236 223.5,363.4 694.5,-165.1 767,212.8 507.3,331.1 -134.9,61.5 -503.5,49.3 -668.3,44.3 -368.6,374.2 -1621.5,1063.9 -2068.7,1102.5 -218.6,18.8 -425.7,-132.4 -608.8,-193.2 78.8,223.4 75,604.4 81.9,631.2 11,21.8 20.7,45.2 29.9,71.5 66.3,197 29.6,426.3 15.6,627.8 -7.6,129.3 -13.4,249.6 -16.7,362.9 194.2,5.5 390.3,35.5 582.9,54.1 65.6,-9.6 458.9,-265.9 866.2,-239.4 236.3,15.3 406.5,127.6 568.4,291.6 -4.3,-4.2 4.5,4.9 3.6,3.8 452.2,505.4 96.5,1230.9 -414.2,1522.5 -521.3,297.7 -1139.9,120.6 -1465.5,-374.4 64.1,211.9 152.9,437.4 272.9,700.6 517.2,1116.2 911.3,2329.3 1596.7,3333.3 87.3,-148.1 161.6,-302.8 256.1,-501.1 25.8,-52.8 85.4,-77.3 139.8,-58.3 64.8,22.6 182.8,207.3 258,291.9 576.2,647.9 1287.3,1014.9 2159.7,798.2 954.8,-245.5 1351.6,-822.3 2100.7,-1066.9 -223.9,-15.2 -439.4,-10.1 -692.7,35.9 -629.5,186.5 -771.8,500.2 -1531,608.2 -215.9,27.8 -391.4,-17.7 -578.7,-47.8 -275.3,-40.6 -557.1,-99.7 -799.5,-242.3 0.1,-0.2 -4.1,-2.6 -4.1,-2.6 -310.2,-218.7 -471.3,-481.9 -781.6,-698 -27.4,-21 -74.5,-45 -67,-100.1 11.8,-86.6 131.6,-64.4 191.6,-70.3 1028,-121.6 1226.8,-490.4 2358.6,-243.2 85.2,24.6 166.1,48.6 249.8,78.4 216.9,78.3 1267.2,539.8 1455.1,366.6 132.6,-122.4 143.8,-864 148.1,-1050.1 3.5,-386.6 -71.5,-711.5 -164.9,-1083.3 -319.1,-1229.4 -528.3,-1939.6 -232.1,-3229.3 427.8,-1632.7 2714.6,-1806.2 3879.5,-3874.2 v 0 c 737.5,-1363.1 810.9,-3098.5 386.6,-4574.8 -157.9,-547.4 -252.6,-1161 -29.1,-1702.2 235.9,-571.3 804,-880.1 1392.6,-969.7 154.5,-23.5 296,-32.5 53.1,46.6"
         style="fill:#333333;fill-opacity:1;fill-rule:nonzero;stroke:none"
         id="path14" />
    </g>
  </g>
</svg>
